<?xml version="1.0" standalone="no"?>
<!DOCTYPE svg PUBLIC "-//W3C//DTD SVG 20010904//EN"
 "http://www.w3.org/TR/2001/REC-SVG-20010904/DTD/svg10.dtd">
<svg version="1.0" xmlns="http://www.w3.org/2000/svg"
 width="253.000000pt" height="291.000000pt" viewBox="0 0 253.000000 291.000000"
 preserveAspectRatio="xMidYMid meet">
<metadata>
Created by potrace 1.16, written by Peter Selinger 2001-2019
</metadata>
<g transform="translate(0.000000,291.000000) scale(0.100000,-0.100000)"
fill="#000000" stroke="none">
<path d="M215 2638 c-3 -7 -4 -569 -3 -1248 l3 -1235 1035 0 1035 0 0 1245 0
1245 -1033 3 c-821 2 -1034 0 -1037 -10z m2005 -1238 l0 -1180 -970 0 -970 0
0 1180 0 1180 970 0 970 0 0 -1180z"/>
<path d="M530 2305 l0 -35 55 0 55 0 0 -575 0 -575 -55 0 -55 0 0 -35 0 -35
155 0 155 0 0 35 0 35 -60 0 -60 0 0 575 0 575 60 0 60 0 0 35 0 35 -155 0
-155 0 0 -35z"/>
<path d="M990 1655 c0 -33 2 -35 34 -35 19 0 43 -8 54 -17 11 -10 103 -158
206 -329 l186 -310 0 -277 0 -277 35 0 35 0 0 274 0 275 186 313 c102 172 195
321 206 331 11 9 35 17 54 17 32 0 34 2 34 35 l0 35 -50 0 c-43 0 -55 -5 -85
-32 -28 -26 -256 -395 -361 -584 l-22 -38 -27 54 c-59 118 -311 527 -346 563
-33 33 -42 37 -88 37 l-51 0 0 -35z"/>
</g>
</svg>
